<?xml version="1.0" encoding="utf-8"?>
<!-- Generator: Adobe Illustrator 25.2.3, SVG Export Plug-In . SVG Version: 6.00 Build 0)  -->
<svg version="1.1" id="Layer_1" xmlns="http://www.w3.org/2000/svg" xmlns:xlink="http://www.w3.org/1999/xlink" x="0px" y="0px"
	 viewBox="0 0 376.8 500" style="enable-background:new 0 0 376.8 500;" xml:space="preserve">
<style type="text/css">
	.st0{fill:#FFFFFF;stroke:#000000;stroke-width:7;stroke-miterlimit:10;}
	.st1{fill:#FFFFFF;}
	.st2{fill:#3CA078;}
</style>
<g>
	<g>
		<path class="st0" d="M206.8,158.4h-68c-8.8,0-16-7.2-16-16v-68c0-8.8,7.2-16,16-16h68c8.8,0,16,7.2,16,16v68
			C222.8,151.2,215.7,158.4,206.8,158.4z"/>
		<polygon class="st1" points="237,48.1 173.4,111.8 145.1,83.5 128.1,100.5 173.4,145.7 254,65.1 		"/>
		<polygon class="st2" points="237,45.1 173.4,108.8 145.1,80.5 128.1,97.5 173.4,142.7 254,62.1 		"/>
	</g>
	<g>
		<path class="st0" d="M206.8,301.6h-68c-8.8,0-16-7.2-16-16v-68c0-8.8,7.2-16,16-16h68c8.8,0,16,7.2,16,16v68
			C222.8,294.4,215.7,301.6,206.8,301.6z"/>
		<polygon class="st1" points="237,191.4 173.4,255 145.1,226.7 128.1,243.7 173.4,289 254,208.4 		"/>
		<polygon class="st2" points="237,188.4 173.4,252 145.1,223.7 128.1,240.7 173.4,286 254,205.4 		"/>
	</g>
	<g>
		<path class="st0" d="M206.8,444.9h-68c-8.8,0-16-7.2-16-16v-68c0-8.8,7.2-16,16-16h68c8.8,0,16,7.2,16,16v68
			C222.8,437.7,215.7,444.9,206.8,444.9z"/>
		<polygon class="st1" points="237,334.6 173.4,398.3 145.1,370 128.1,387 173.4,432.2 254,351.6 		"/>
		<polygon class="st2" points="237,331.6 173.4,395.3 145.1,367 128.1,384 173.4,429.2 254,348.6 		"/>
	</g>
</g>
</svg>
