<?xml version="1.0" encoding="utf-8"?>
<!-- Generator: Adobe Illustrator 25.2.3, SVG Export Plug-In . SVG Version: 6.00 Build 0)  -->
<svg version="1.1" id="Layer_1" xmlns="http://www.w3.org/2000/svg" xmlns:xlink="http://www.w3.org/1999/xlink" x="0px" y="0px"
	 viewBox="0 0 376.8 500" style="enable-background:new 0 0 376.8 500;" xml:space="preserve">
<style type="text/css">
	.st0{fill:#7E6529;}
</style>
<g>
	<path class="st0" d="M151.3,307.3v-8.4c0-27.5,10-47,49.3-75.7c22.9-16.4,30.9-24.8,31-40.4c0.1-16.9-11.5-33.1-42.2-33.1
		c-26.5,0-42.7,14.2-46.3,37.7H75.4C78.1,154.4,100,100,192.3,100c81.4,0,109.1,47.2,109.1,80.9c0,28-6,48.4-46.3,76.7
		c-24.5,17.2-33.2,28.1-33.2,45.4v4.2H151.3z M151.3,400v-68.8H222V400H151.3z"/>
</g>
</svg>
