<?xml version="1.0" encoding="utf-8"?>
<!-- Generator: Adobe Illustrator 25.2.3, SVG Export Plug-In . SVG Version: 6.00 Build 0)  -->
<svg version="1.1" id="Layer_1" xmlns="http://www.w3.org/2000/svg" xmlns:xlink="http://www.w3.org/1999/xlink" x="0px" y="0px"
	 viewBox="0 0 392 699" style="enable-background:new 0 0 392 699;" xml:space="preserve">
<style type="text/css">
	.st0{fill:#006478;}
	.st1{fill:#3CA078;}
</style>
<path class="st0" d="M391.9,323.8L198.8,2.1c-1.2-2.2-3.4-2.2-4.6,0L1.1,323.8c-1.4,2.3-0.3,4.2,2.3,4.2h386.1
	C392.2,328,393.3,326.1,391.9,323.8z"/>
<polygon class="st1" points="235.9,240 157.1,240 196.5,174.4 "/>
<path class="st1" d="M391.9,376.2l-193,321.7c-1.3,2.2-3.4,2.2-4.7,0L1.1,376.2c-1.4-2.3-0.3-4.2,2.4-4.2h97.7
	c1.9,0.1,3.6,1.1,4.7,2.7l90.6,151l90.6-151c1.1-1.6,2.8-2.6,4.7-2.7h97.7C392.2,372,393.3,373.9,391.9,376.2z"/>
</svg>
